<svg xmlns="http://www.w3.org/2000/svg" viewBox="0 0 32 32">
  <defs>
    <clipPath id="c">
      <rect x="0" y="0" width="32" height="32" rx="4" />
    </clipPath>
  </defs>
  <g clip-path="url(#c)">
    <rect x="0" y="0" width="32" height="2.9" fill="#b8232e" />
    <rect x="0" y="2.9" width="32" height="2.9" fill="#fdfcf7" />
    <rect x="0" y="5.8" width="32" height="2.9" fill="#b8232e" />
    <rect x="0" y="8.7" width="32" height="2.9" fill="#fdfcf7" />
    <rect x="0" y="11.6" width="32" height="2.9" fill="#b8232e" />
    <rect x="0" y="14.5" width="32" height="2.9" fill="#fdfcf7" />
    <rect x="0" y="17.4" width="32" height="2.9" fill="#b8232e" />
    <rect x="0" y="20.3" width="32" height="2.9" fill="#fdfcf7" />
    <rect x="0" y="23.2" width="32" height="2.9" fill="#b8232e" />
    <rect x="0" y="26.1" width="32" height="2.9" fill="#fdfcf7" />
    <rect x="0" y="29" width="32" height="2.9" fill="#b8232e" />
    <rect x="0" y="0" width="16" height="17.4" fill="#1e3a8a" />
    <path d="M8 3.5l1.5 3.6 3.9.3-3 2.6 1 3.8L8 11.8 4.6 13.8l1-3.8-3-2.6 3.9-.3L8 3.5z" fill="#fdfcf7" />
  </g>
</svg>
